<svg width="139" height="138" viewBox="0 0 139 138" fill="none" xmlns="http://www.w3.org/2000/svg">
<g clip-path="url(#clip0)">
<path d="M91.8597 36.4494H69.2257C68.7302 36.4509 68.2408 36.3394 67.7949 36.1234C67.349 35.9073 66.9583 35.5924 66.6524 35.2027C66.341 34.8093 66.1235 34.35 66.0165 33.8598C65.9094 33.3697 65.9156 32.8616 66.0347 32.3742C68.1207 23.639 68.1207 14.5356 66.0345 5.80051C65.9156 5.31314 65.9094 4.80506 66.0165 4.31494C66.1236 3.82483 66.341 3.36558 66.6524 2.97215C66.9582 2.58238 67.349 2.26749 67.7949 2.05144C68.2408 1.8354 68.7301 1.72389 69.2257 1.72542H91.8597C92.6411 1.72766 93.3964 2.00715 93.991 2.5141C94.5856 3.02105 94.9809 3.72255 95.1065 4.49364C96.5961 14.1658 96.5961 24.009 95.1065 33.6812C94.9809 34.4523 94.5856 35.1538 93.991 35.6607C93.3964 36.1677 92.6411 36.4472 91.8597 36.4494Z" fill="#E6E6E6"/>
<path d="M69.2257 3.42799C68.9877 3.42719 68.7527 3.48066 68.5385 3.58434C68.3243 3.68801 68.1366 3.83916 67.9897 4.02628C67.8384 4.218 67.7328 4.44169 67.6809 4.68035C67.6291 4.91901 67.6324 5.16634 67.6906 5.40353C69.8391 14.3997 69.8391 23.7751 67.6907 32.7713C67.6325 33.0084 67.6292 33.2557 67.681 33.4943C67.7327 33.7329 67.8383 33.9566 67.9896 34.1482L67.9897 34.1484C68.1366 34.3355 68.3243 34.4867 68.5385 34.5904C68.7527 34.6941 68.9877 34.7476 69.2257 34.7468H91.8596C92.2349 34.7469 92.5981 34.6139 92.8844 34.3714C93.1708 34.1289 93.3617 33.7926 93.4233 33.4225C94.8864 23.9217 94.8864 14.2531 93.4233 4.75231C93.3617 4.3822 93.1708 4.04595 92.8844 3.80342C92.5981 3.5609 92.2349 3.42786 91.8596 3.42798L69.2257 3.42799Z" fill="white"/>
<path d="M86.9204 11.6148H75.043C74.5915 11.6143 74.1587 11.4348 73.8394 11.1156C73.5201 10.7964 73.3406 10.3637 73.3401 9.91228V9.24695C73.3406 8.79557 73.5201 8.36281 73.8394 8.04364C74.1587 7.72446 74.5915 7.54493 75.043 7.54443H86.9204C87.3719 7.54493 87.8048 7.72446 88.1241 8.04364C88.4433 8.36281 88.6229 8.79557 88.6234 9.24695V9.91229C88.6229 10.3637 88.4433 10.7964 88.1241 11.1156C87.8048 11.4348 87.3719 11.6143 86.9204 11.6148Z" fill="#E6E6E6"/>
<path d="M86.9204 20.0215H75.043C74.5915 20.021 74.1587 19.8415 73.8394 19.5223C73.5201 19.2032 73.3406 18.7704 73.3401 18.319V17.6537C73.3406 17.2023 73.5201 16.7695 73.8394 16.4504C74.1587 16.1312 74.5915 15.9517 75.043 15.9512H86.9204C87.3719 15.9517 87.8048 16.1312 88.1241 16.4504C88.4433 16.7695 88.6229 17.2023 88.6234 17.6537V18.319C88.6229 18.7704 88.4433 19.2032 88.1241 19.5223C87.8048 19.8415 87.3719 20.021 86.9204 20.0215Z" fill="#E6E6E6"/>
<path d="M86.9204 28.4283H75.043C74.5915 28.4278 74.1587 28.2482 73.8394 27.9291C73.5201 27.6099 73.3406 27.1771 73.3401 26.7257V26.0604C73.3406 25.609 73.5201 25.1763 73.8394 24.8571C74.1587 24.5379 74.5915 24.3584 75.043 24.3579H86.9204C87.3719 24.3584 87.8048 24.5379 88.1241 24.8571C88.4433 25.1763 88.6229 25.609 88.6234 26.0604V26.7257C88.6229 27.1771 88.4433 27.6099 88.1241 27.9291C87.8048 28.2482 87.3719 28.4278 86.9204 28.4283Z" fill="#E6E6E6"/>
<path d="M134.436 58.0155H111.802C111.306 58.017 110.817 57.9055 110.371 57.6895C109.925 57.4734 109.535 57.1585 109.229 56.7688C108.917 56.3754 108.7 55.9161 108.593 55.4259C108.486 54.9358 108.492 54.4277 108.611 53.9403C110.697 45.2051 110.697 36.1017 108.611 27.3666C108.492 26.8792 108.486 26.3712 108.593 25.8811C108.7 25.3909 108.917 24.9317 109.229 24.5383C109.535 24.1485 109.925 23.8336 110.371 23.6175C110.817 23.4015 111.306 23.29 111.802 23.2915H134.436C135.217 23.2938 135.973 23.5733 136.567 24.0802C137.162 24.5872 137.557 25.2886 137.683 26.0597C139.172 35.7319 139.172 45.5751 137.683 55.2473C137.557 56.0184 137.162 56.7199 136.567 57.2268C135.973 57.7338 135.217 58.0133 134.436 58.0155Z" fill="#E6E6E6"/>
<path d="M111.802 24.9941C111.564 24.9933 111.329 25.0468 111.115 25.1504C110.901 25.2541 110.713 25.4053 110.566 25.5924C110.415 25.7841 110.309 26.0078 110.257 26.2465C110.205 26.4851 110.209 26.7324 110.267 26.9696C112.415 35.9658 112.415 45.3412 110.267 54.3374C110.209 54.5745 110.205 54.8218 110.257 55.0604C110.309 55.299 110.415 55.5227 110.566 55.7143L110.566 55.7145C110.713 55.9016 110.901 56.0528 111.115 56.1565C111.329 56.2602 111.564 56.3137 111.802 56.3129H134.436C134.811 56.313 135.174 56.18 135.461 55.9375C135.747 55.695 135.938 55.3587 136 54.9886C137.463 45.4878 137.463 35.8192 136 26.3184C135.938 25.9483 135.747 25.612 135.461 25.3695C135.174 25.127 134.811 24.994 134.436 24.9941L111.802 24.9941Z" fill="white"/>
<path d="M89.3051 82.5611H66.6711C66.1541 82.5627 65.6436 82.4463 65.1784 82.2209C64.7132 81.9955 64.3055 81.667 63.9864 81.2603C63.6617 80.8501 63.4349 80.3712 63.3232 79.8601C63.2116 79.349 63.218 78.8191 63.3421 78.3109C65.4229 69.5975 65.4229 60.5168 63.342 51.8035C63.218 51.2952 63.2116 50.7654 63.3232 50.2543C63.4349 49.7433 63.6617 49.2644 63.9864 48.8541C64.3055 48.4475 64.7131 48.119 65.1784 47.8936C65.6436 47.6682 66.1541 47.5518 66.6711 47.5534H89.3051C90.1204 47.5558 90.9083 47.8475 91.5286 48.3764C92.1489 48.9054 92.5612 49.6373 92.6922 50.4419C94.184 60.1284 94.184 69.9861 92.6922 79.6726C92.5612 80.4771 92.1489 81.209 91.5286 81.738C90.9083 82.267 90.1204 82.5587 89.3051 82.5611Z" fill="#F2F2F2"/>
<path d="M129.497 37.4374H117.619C117.168 37.4369 116.735 37.2573 116.416 36.9382C116.096 36.619 115.917 36.1862 115.916 35.7348V35.0695C115.917 34.6181 116.096 34.1854 116.416 33.8662C116.735 33.547 117.168 33.3675 117.619 33.367H129.497C129.948 33.3675 130.381 33.547 130.7 33.8662C131.02 34.1854 131.199 34.6181 131.2 35.0695V35.7349C131.199 36.1862 131.02 36.619 130.7 36.9382C130.381 37.2573 129.948 37.4369 129.497 37.4374Z" fill="#E6E6E6"/>
<path d="M129.497 45.8441H117.619C117.168 45.8436 116.735 45.6641 116.416 45.3449C116.096 45.0257 115.917 44.593 115.916 44.1416V43.4763C115.917 43.0249 116.096 42.5921 116.416 42.2729C116.735 41.9538 117.168 41.7742 117.619 41.7737H129.497C129.948 41.7742 130.381 41.9538 130.7 42.2729C131.02 42.5921 131.199 43.0249 131.2 43.4763V44.1416C131.199 44.593 131.02 45.0257 130.7 45.3449C130.381 45.6641 129.948 45.8436 129.497 45.8441Z" fill="#E6E6E6"/>
<path d="M78.0514 71.4667C81.6569 71.4667 84.5798 68.5447 84.5798 64.9402C84.5798 61.3356 81.6569 58.4136 78.0514 58.4136C74.4459 58.4136 71.523 61.3356 71.523 64.9402C71.523 68.5447 74.4459 71.4667 78.0514 71.4667Z" fill="white"/>
<path d="M81.1737 64.0888H78.9029V61.8187C78.9029 61.5929 78.8132 61.3764 78.6535 61.2167C78.4938 61.0571 78.2772 60.9674 78.0514 60.9674C77.8255 60.9674 77.609 61.0571 77.4493 61.2167C77.2896 61.3764 77.1999 61.5929 77.1999 61.8187V64.0888H74.9291C74.7033 64.0888 74.4867 64.1785 74.327 64.3381C74.1673 64.4978 74.0776 64.7143 74.0776 64.9401C74.0776 65.1659 74.1673 65.3824 74.327 65.542C74.4867 65.7017 74.7033 65.7914 74.9291 65.7914H77.1999V68.0615C77.1999 68.2873 77.2896 68.5038 77.4493 68.6634C77.609 68.8231 77.8255 68.9128 78.0514 68.9128C78.2772 68.9128 78.4938 68.8231 78.6535 68.6634C78.8132 68.5038 78.9029 68.2873 78.9029 68.0615V65.7914H81.1737C81.3995 65.7914 81.6161 65.7017 81.7758 65.542C81.9355 65.3824 82.0252 65.1659 82.0252 64.9401C82.0252 64.7143 81.9355 64.4978 81.7758 64.3381C81.6161 64.1785 81.3995 64.0888 81.1737 64.0888Z" fill="#E6E6E6"/>
<path d="M86.2828 4.924H74.3614C74.0228 4.92362 73.6981 4.78896 73.4587 4.54957C73.2192 4.31018 73.0845 3.98561 73.0842 3.64706V1.37695C73.0845 1.0384 73.2192 0.713824 73.4587 0.474434C73.6981 0.235044 74.0228 0.100388 74.3614 0.100006H86.2828C86.6214 0.100388 86.9461 0.235044 87.1855 0.474434C87.425 0.713824 87.5597 1.0384 87.5601 1.37695V3.64706C87.5597 3.98561 87.425 4.31018 87.1855 4.54957C86.9461 4.78896 86.6214 4.92362 86.2828 4.924Z" fill="#CCCCCC"/>
<path d="M129.427 26.7738H117.505C117.167 26.7734 116.842 26.6388 116.603 26.3994C116.363 26.16 116.229 25.8354 116.228 25.4969V23.2268C116.229 22.8882 116.363 22.5637 116.603 22.3243C116.842 22.0849 117.167 21.9502 117.505 21.9498H129.427C129.765 21.9502 130.09 22.0849 130.33 22.3243C130.569 22.5637 130.704 22.8882 130.704 23.2268V25.4969C130.704 25.8354 130.569 26.16 130.33 26.3994C130.09 26.6388 129.765 26.7734 129.427 26.7738Z" fill="#CCCCCC"/>
<path d="M26.0473 133.77H29.5272L30.6151 120.352H26.0467L26.0473 133.77Z" fill="#FFB8B8"/>
<path d="M25.1598 132.635L32.0128 132.634H32.0131C32.5866 132.634 33.1545 132.747 33.6844 132.967C34.2142 133.186 34.6957 133.508 35.1012 133.913C35.5068 134.318 35.8285 134.8 36.0479 135.329C36.2674 135.859 36.3804 136.427 36.3804 137V137.142L25.16 137.143L25.1598 132.635Z" fill="#2F2E41"/>
<path d="M7.31369 133.77H10.7936L12.4492 120.352H7.31313L7.31369 133.77Z" fill="#FFB8B8"/>
<path d="M6.42618 132.635L13.2792 132.634H13.2795C13.853 132.634 14.4209 132.747 14.9508 132.967C15.4807 133.186 15.9621 133.508 16.3677 133.913C16.7732 134.318 17.0949 134.8 17.3144 135.329C17.5339 135.859 17.6468 136.427 17.6468 137V137.142L6.42639 137.143L6.42618 132.635Z" fill="#2F2E41"/>
<path d="M7.93112 129.531C7.57614 129.531 7.23418 129.398 6.97315 129.157C6.83303 129.029 6.72018 128.875 6.64137 128.702C6.56257 128.53 6.51943 128.343 6.51454 128.153L5.11899 78.1504L24.9343 83.1027L31.0482 101.439C31.8366 103.798 32.1778 106.283 32.0545 108.767L31.2953 126.541C31.278 126.905 31.1211 127.249 30.8571 127.5C30.5931 127.751 30.2424 127.892 29.8777 127.891H26.5542C26.2112 127.89 25.8801 127.765 25.6218 127.539C25.3635 127.314 25.1952 127.002 25.1478 126.663L22.7724 107.043C22.5648 105.512 22.0292 104.044 21.2022 102.74L16.5275 95.3403C16.4963 95.2909 16.4505 95.2523 16.3965 95.2299C16.3425 95.2075 16.2828 95.2023 16.2257 95.215C16.1687 95.2277 16.1169 95.2578 16.0776 95.3011C16.0382 95.3443 16.0132 95.3987 16.0059 95.4567L12.3374 128.115C12.298 128.446 12.143 128.753 11.8996 128.981C11.6563 129.209 11.3402 129.344 11.007 129.362L8.01191 129.529C7.98496 129.53 7.95808 129.531 7.93112 129.531Z" fill="#2F2E41"/>
<path d="M21.6368 45.7767C25.4871 45.7767 28.6083 42.6564 28.6083 38.8072C28.6083 34.958 25.4871 31.8376 21.6368 31.8376C17.7866 31.8376 14.6654 34.958 14.6654 38.8072C14.6654 42.6564 17.7866 45.7767 21.6368 45.7767Z" fill="#FFB8B8"/>
<path d="M24.8394 85.1363C24.7194 85.1361 24.6 85.1209 24.4838 85.0911H24.4835L4.82343 80.0515C4.47193 79.9616 4.16827 79.7404 3.97489 79.4334C3.78151 79.1265 3.71311 78.7571 3.78375 78.4013L8.29887 54.0853C8.58017 52.6798 9.19849 51.3635 10.1008 50.2494C11.003 49.1354 12.1622 48.2569 13.4789 47.6894C14.7618 47.1218 16.1648 46.8786 17.564 46.9813C18.9632 47.0839 20.3156 47.5294 21.5019 48.2783C21.7771 48.45 22.0544 48.6371 22.3258 48.8347C23.4182 49.6404 24.3091 50.6882 24.9286 51.8958C25.5481 53.1035 25.8793 54.4382 25.8962 55.7953L26.2552 83.6974C26.2576 83.885 26.2228 84.0713 26.1528 84.2454C26.0828 84.4196 25.979 84.5781 25.8473 84.7119C25.7157 84.8457 25.5588 84.9521 25.3858 85.0249C25.2128 85.0978 25.0271 85.1356 24.8394 85.1363Z" fill="#57C298"/>
<path d="M6.8463 85.4222C6.61178 85.0772 6.45577 84.685 6.38929 84.2731C6.3228 83.8613 6.34745 83.4399 6.46148 83.0386C6.57552 82.6374 6.77618 82.266 7.04933 81.9506C7.32247 81.6352 7.66146 81.3836 8.04242 81.2134L7.16795 71.1108L11.802 73.6217L11.9219 82.8303C12.1655 83.4891 12.159 84.2143 11.9035 84.8685C11.648 85.5228 11.1613 86.0606 10.5357 86.3801C9.91006 86.6996 9.18893 86.7785 8.50895 86.602C7.82898 86.4255 7.23739 86.0057 6.84631 85.4222H6.8463Z" fill="#FFB8B8"/>
<path d="M8.50185 79.8772C8.37109 79.8771 8.24087 79.8606 8.1142 79.8282C7.84175 79.7587 7.59314 79.6169 7.39468 79.4178C7.19623 79.2187 7.0553 78.9696 6.9868 78.697L4.70948 69.6495C3.91362 66.4896 4.29301 63.1482 5.77708 60.2471L10.5481 50.9164C10.8497 49.7992 11.5784 48.8453 12.5771 48.2604C13.5758 47.6755 14.7644 47.5064 15.8867 47.7897C16.446 47.9309 16.9718 48.1817 17.4334 48.5276C17.8951 48.8735 18.2834 49.3075 18.576 49.8046C18.8746 50.3088 19.0699 50.8673 19.1505 51.4477C19.2311 52.028 19.1954 52.6186 19.0455 53.1851L12.2539 68.3681L12.3345 77.4587C12.3366 77.7794 12.2402 78.093 12.0582 78.3572C11.8763 78.6213 11.6176 78.8232 11.3171 78.9356L9.04431 79.7794C8.87076 79.844 8.68705 79.8772 8.50185 79.8772Z" fill="#57C298"/>
<path d="M41.0119 81.7062C40.5973 81.6589 40.1982 81.5212 39.8426 81.3029C39.487 81.0847 39.1836 80.7911 38.9538 80.4429C38.7239 80.0948 38.5733 79.7004 38.5123 79.2877C38.4514 78.875 38.4818 78.454 38.6012 78.0543L30.3717 72.1267L35.2982 70.2534L42.3578 76.1695C43.0162 76.4147 43.5617 76.8927 43.8911 77.5131C44.2204 78.1335 44.3107 78.8531 44.1448 79.5355C43.9789 80.218 43.5683 80.8159 42.9909 81.216C42.4135 81.6161 41.7094 81.7905 41.0119 81.7062H41.0119Z" fill="#FFB8B8"/>
<path d="M36.7038 77.3777C36.4611 77.3775 36.2219 77.321 36.0048 77.2127L27.6601 73.0364C24.7454 71.578 22.4597 69.1109 21.228 66.0941L17.2664 56.392C16.6162 55.4347 16.3685 54.2602 16.5765 53.1219C16.7845 51.9836 17.4316 50.9726 18.3784 50.3069C18.8514 49.9744 19.3859 49.7393 19.9507 49.6154C20.5155 49.4915 21.0994 49.4812 21.6682 49.5852C22.2437 49.6886 22.793 49.9052 23.2841 50.2224C23.7753 50.5396 24.1986 50.9511 24.5296 51.4331L31.61 66.4838L38.5544 72.3528C38.799 72.5604 38.9738 72.838 39.0554 73.1482C39.137 73.4584 39.1213 73.7861 39.0105 74.0871L38.1675 76.3596C38.0575 76.6576 37.8587 76.9147 37.5979 77.0963C37.3358 77.2795 37.0236 77.3777 36.7038 77.3777Z" fill="#57C298"/>
<path d="M20.1729 45.8834C20.5433 46.0454 21.3019 43.0947 20.9621 42.5046C20.4568 41.6269 20.4866 41.6332 20.1512 41.0526C19.8157 40.4719 19.7407 39.6771 20.1751 39.1662C20.6095 38.6553 21.6147 38.7231 21.813 39.3637C21.6854 38.1469 22.8893 37.1689 24.0817 36.894C25.2742 36.6192 26.532 36.7898 27.731 36.5452C29.1225 36.2614 30.5703 35.0953 30.0151 33.5655C29.9198 33.3108 29.7772 33.0765 29.5947 32.8748C28.9533 32.1538 28.056 31.8459 27.1787 31.5482C25.3535 30.9289 23.4785 30.3018 21.5523 30.3702C19.9652 30.4531 18.4368 30.9968 17.154 31.9347C15.8712 32.8726 14.8897 34.164 14.3296 35.6508C14.1968 36.0228 14.094 36.4047 14.0221 36.7931C13.3609 40.347 15.4253 43.8525 18.7782 45.2059L20.1729 45.8834Z" fill="#2F2E41"/>
<path opacity="0.2" d="M11.9415 77.665L12.0996 68.3209L17.0506 58.369L13.0768 68.5845L11.9415 77.665Z" fill="black"/>
<path d="M56.8388 101.115L35.9371 92.4331C35.479 92.2445 35.0699 91.9538 34.741 91.5833C34.4122 91.2127 34.1722 90.772 34.0393 90.2948C33.9028 89.812 33.8782 89.3045 33.9674 88.8108C34.0567 88.3171 34.2574 87.8502 34.5544 87.4458C39.8332 80.1794 43.327 71.7727 44.7529 62.9059C44.8302 62.4102 45.0195 61.9387 45.3064 61.5271C45.5934 61.1156 45.9705 60.7749 46.409 60.531C46.841 60.2884 47.3227 60.1475 47.8174 60.119C48.3121 60.0906 48.8068 60.1753 49.2638 60.3668L70.1655 69.0487C70.8863 69.3505 71.4765 69.8983 71.8311 70.5946C72.1856 71.2908 72.2814 72.0902 72.1014 72.8505C69.765 82.3538 65.9873 91.4436 60.8996 99.8041C60.4877 100.468 59.8534 100.964 59.1097 101.204C58.3661 101.444 57.5613 101.413 56.8388 101.115Z" fill="#E6E6E6"/>
<path d="M48.6104 61.9391C48.3909 61.8471 48.1534 61.8063 47.9158 61.8199C47.6782 61.8335 47.4469 61.901 47.2394 62.0175C47.026 62.1365 46.8427 62.3026 46.7032 62.5031C46.5638 62.7036 46.4719 62.9332 46.4346 63.1746C44.966 72.3063 41.3679 80.9642 35.9313 88.4478C35.7865 88.6444 35.6885 88.8715 35.6448 89.1117C35.601 89.3519 35.6127 89.599 35.6788 89.834L35.6789 89.8342C35.7427 90.0634 35.858 90.275 36.016 90.4529C36.174 90.6308 36.3705 90.7704 36.5906 90.8609L57.4922 99.5428C57.8387 99.6869 58.2252 99.7033 58.5827 99.5892C58.9402 99.4751 59.2456 99.2378 59.4444 98.9196C64.4419 90.7072 68.1526 81.7786 70.4477 72.4437C70.5329 72.0783 70.4857 71.6946 70.3143 71.3608C70.143 71.027 69.8587 70.7648 69.512 70.621L48.6104 61.9391Z" fill="white"/>
<path d="M59.7396 81.2655L48.7713 76.7096C48.3545 76.536 48.0237 76.2041 47.8514 75.7869C47.679 75.3697 47.6793 74.9012 47.8521 74.4842L48.1074 73.8698C48.2811 73.4531 48.613 73.1224 49.0303 72.9501C49.4477 72.7778 49.9163 72.778 50.3335 72.9508L61.3018 77.5067C61.7186 77.6803 62.0494 78.0122 62.2217 78.4294C62.3941 78.8466 62.3938 79.3151 62.221 79.7321L61.9657 80.3465C61.792 80.7632 61.4601 81.0939 61.0428 81.2662C60.6254 81.4385 60.1568 81.4383 59.7396 81.2655Z" fill="#57C298"/>
<path d="M56.5132 89.0288L45.5449 84.4729C45.1281 84.2993 44.7973 83.9674 44.6249 83.5502C44.4526 83.133 44.4529 82.6645 44.6256 82.2475L44.881 81.6331C45.0547 81.2164 45.3866 80.8857 45.8039 80.7134C46.2212 80.5411 46.6899 80.5413 47.107 80.7141L58.0754 85.27C58.4922 85.4436 58.823 85.7755 58.9953 86.1927C59.1676 86.6099 59.1674 87.0784 58.9946 87.4954L58.7393 88.1099C58.5656 88.5265 58.2337 88.8573 57.8163 89.0295C57.399 89.2018 56.9304 89.2016 56.5132 89.0288Z" fill="#57C298"/>
<path d="M64.1347 70.3549C63.9705 70.3548 63.8078 70.3229 63.6557 70.2611L52.6035 65.7939C52.2897 65.6667 52.0392 65.4202 51.907 65.1085C51.7747 64.7969 51.7715 64.4455 51.8981 64.1315L52.7492 62.0268C52.8763 61.7129 53.1228 61.4622 53.4346 61.33C53.7465 61.1978 54.0981 61.1948 54.4122 61.3217L65.4644 65.7889C65.7782 65.9162 66.0287 66.1627 66.1609 66.4743C66.2932 66.786 66.2964 67.1373 66.1698 67.4513L65.3187 69.556C65.223 69.7917 65.0594 69.9936 64.8485 70.1359C64.6376 70.2782 64.3891 70.3544 64.1347 70.3549Z" fill="#CCCCCC"/>
<path d="M40.9217 137.3H1.18384C1.10856 137.3 1.03637 137.27 0.983141 137.217C0.92991 137.164 0.900002 137.092 0.900002 137.016C0.900002 136.941 0.92991 136.869 0.983141 136.816C1.03637 136.762 1.10856 136.732 1.18384 136.732H40.9217C40.997 136.732 41.0692 136.762 41.1224 136.816C41.1757 136.869 41.2056 136.941 41.2056 137.016C41.2056 137.092 41.1757 137.164 41.1224 137.217C41.0692 137.27 40.997 137.3 40.9217 137.3Z" fill="#CCCCCC"/>
</g>
<defs>
<clipPath id="clip0">
<rect width="137.9" height="137.2" fill="white" transform="translate(0.900002 0.100006)"/>
</clipPath>
</defs>
</svg>
