<svg xmlns="http://www.w3.org/2000/svg" width="153" height="106" fill="none" viewBox="0 0 153 106"><path fill="#F1F1F1" d="M7.4947 97.7213C7.55873 100.411 7.9591 103.077 8.68399 105.641C8.70006 105.701 8.7179 105.76 8.73526 105.819H13.1731C13.1684 105.766 13.1636 105.706 13.1589 105.641C12.863 101.813 14.5534 78.7882 16.5932 74.8033C16.4145 75.1265 7.15062 85.5559 7.4947 97.7213Z"/><path fill="#F1F1F1" d="M7.82759 105.641C7.86472 105.701 7.90329 105.761 7.94282 105.819H11.2722C11.247 105.768 11.2177 105.709 11.1838 105.641C10.6338 104.524 9.00595 101.184 7.49491 97.7213C5.8717 94.0001 4.38123 90.1378 4.50675 88.7399C4.46786 89.055 3.34415 98.6663 7.82759 105.641Z"/><path fill="#9F616A" d="M104.672 21.8109C104.799 22.1644 104.993 22.4824 105.241 22.7423C105.489 23.0022 105.785 23.1977 106.107 23.3152C106.43 23.4326 106.771 23.469 107.107 23.4218C107.443 23.3747 107.766 23.2451 108.053 23.0423L114.479 28.8433L114.877 24.0464L108.714 19.2731C108.379 18.7531 107.887 18.3894 107.33 18.2508C106.773 18.1122 106.19 18.2085 105.691 18.5213C105.193 18.8341 104.814 19.3417 104.626 19.948C104.438 20.5543 104.455 21.2171 104.672 21.8109Z"/><path fill="#71B79C" d="M114.622 23.596L112.224 21.6889L109.504 25.2262L112.668 27.3368L114.622 23.596Z"/><path fill="#3F3D56" d="M114.097 22.3027L122.179 25.8027L129.959 20.0689C130.763 19.4763 131.731 19.2333 132.683 19.3853C133.634 19.5373 134.504 20.0738 135.13 20.8948C135.756 21.7158 136.094 22.765 136.083 23.8466C136.072 24.9283 135.712 25.9683 135.069 26.7726L134.999 26.8596L123.033 34.0803L109.963 27.3598L114.097 22.3027Z"/><path fill="#E5E5E5" d="M111.819 105.457H27.6042L30.6578 38.3481H43.8364L55.9886 47.9351H114.872L111.819 105.457Z"/><path fill="#fff" d="M91.2036 84.9922L42.5289 62.4305C42.3587 62.3514 42.2234 62.1995 42.1526 62.0082C42.0818 61.8169 42.0813 61.6018 42.1512 61.4101L64.2066 1.13277C64.277 0.941238 64.4119 0.788921 64.5818 0.709227C64.7518 0.629533 64.9429 0.628971 65.1132 0.707665L113.788 23.2694C113.958 23.3485 114.093 23.5004 114.164 23.6917C114.235 23.883 114.236 24.0981 114.166 24.2898L92.1102 84.5671C92.0399 84.7587 91.905 84.911 91.735 84.9907C91.565 85.0704 91.3739 85.0709 91.2036 84.9922Z"/><path fill="#3F3D56" d="M91.2036 84.9922L42.5289 62.4305C42.3587 62.3514 42.2234 62.1995 42.1526 62.0082C42.0818 61.8169 42.0813 61.6018 42.1512 61.4101L64.2066 1.13277C64.277 0.941238 64.4119 0.788921 64.5818 0.709227C64.7518 0.629533 64.9429 0.628971 65.1132 0.707665L113.788 23.2694C113.958 23.3485 114.093 23.5004 114.164 23.6917C114.235 23.883 114.236 24.0981 114.166 24.2898L92.1102 84.5671C92.0399 84.7587 91.905 84.911 91.735 84.9907C91.565 85.0704 91.3739 85.0709 91.2036 84.9922ZM65.0075 0.996766C64.9053 0.949542 64.7906 0.949876 64.6886 0.997693C64.5866 1.04551 64.5057 1.1369 64.4635 1.25183L42.4081 61.5291C42.3661 61.6442 42.3664 61.7732 42.4089 61.888C42.4514 62.0028 42.5326 62.0939 42.6347 62.1414L91.3094 84.7031C91.4116 84.7504 91.5262 84.75 91.6282 84.7022C91.7302 84.6544 91.8112 84.563 91.8533 84.4481L113.909 24.1707C113.951 24.0557 113.95 23.9267 113.908 23.8119C113.865 23.6971 113.784 23.606 113.682 23.5585L65.0075 0.996766Z"/><path fill="#F2F2F2" d="M78.7549 30.5458L66.6826 24.95C66.5124 24.8709 66.3771 24.719 66.3063 24.5277C66.2355 24.3364 66.235 24.1214 66.3049 23.9296L71.2766 10.3419C71.3469 10.1504 71.4819 9.9981 71.6518 9.91841C71.8218 9.83872 72.0129 9.83815 72.1832 9.91685L84.2556 15.5126C84.4257 15.5918 84.5611 15.7436 84.6319 15.9349C84.7027 16.1262 84.7032 16.3413 84.6333 16.533L79.6615 30.1207C79.5912 30.3123 79.4563 30.4646 79.2863 30.5443C79.1164 30.624 78.9253 30.6245 78.7549 30.5458ZM72.0774 10.2059C71.9752 10.1587 71.8606 10.1591 71.7586 10.2069C71.6566 10.2547 71.5757 10.3461 71.5335 10.461L66.5617 24.0487C66.5198 24.1637 66.5201 24.2928 66.5626 24.4076C66.6051 24.5223 66.6863 24.6135 66.7884 24.6609L78.8607 30.2567C78.9629 30.304 79.0776 30.3036 79.1796 30.2558C79.2815 30.208 79.3625 30.1166 79.4047 30.0017L84.3764 16.414C84.4184 16.299 84.4181 16.1699 84.3756 16.0551C84.3331 15.9403 84.2519 15.8492 84.1498 15.8017L72.0774 10.2059Z"/><path fill="#71B79C" d="M74.6793 30.6008L62.6069 25.0051C62.4537 24.9338 62.3319 24.7972 62.2682 24.625C62.2045 24.4528 62.204 24.2592 62.267 24.0867L67.2387 10.499C67.302 10.3266 67.4234 10.1895 67.5764 10.1178C67.7294 10.0461 67.9014 10.0456 68.0547 10.1164L80.127 15.7122C80.2802 15.7834 80.402 15.9201 80.4657 16.0923C80.5294 16.2644 80.5299 16.458 80.4669 16.6306L75.4952 30.2183C75.4319 30.3906 75.3105 30.5277 75.1575 30.5995C75.0046 30.6712 74.8325 30.6717 74.6793 30.6008Z"/><path fill="#CCC" d="M97.932 49.1561L60.1738 31.6544C60.0979 31.6192 60.0289 31.5675 59.9707 31.5023C59.9126 31.4371 59.8664 31.3597 59.8348 31.2744C59.8032 31.1891 59.7869 31.0977 59.7867 31.0053C59.7866 30.9129 59.8026 30.8214 59.8338 30.736C59.8651 30.6506 59.911 30.5729 59.9689 30.5075C60.0268 30.442 60.0956 30.39 60.1714 30.3545C60.2472 30.319 60.3284 30.3006 60.4105 30.3004C60.4926 30.3002 60.5739 30.3182 60.6498 30.3534L98.408 47.8551C98.5613 47.9262 98.6832 48.0629 98.747 48.2351C98.8107 48.4073 98.811 48.601 98.7479 48.7735C98.6848 48.946 98.5634 49.0832 98.4104 49.155C98.2573 49.2267 98.0853 49.2271 97.932 49.1561V49.1561Z"/><path fill="#CCC" d="M87.174 49.4105L58.5342 36.1354C58.4583 36.1002 58.3893 36.0486 58.3312 35.9834C58.273 35.9182 58.2268 35.8407 58.1953 35.7555C58.1637 35.6702 58.1474 35.5788 58.1472 35.4864C58.1471 35.394 58.1631 35.3025 58.1943 35.2171C58.2256 35.1316 58.2715 35.054 58.3294 34.9885C58.3873 34.9231 58.4561 34.8711 58.5319 34.8356C58.6076 34.8 58.6889 34.7817 58.771 34.7815C58.853 34.7813 58.9343 34.7993 59.0102 34.8345L87.65 48.1096C87.8033 48.1806 87.9252 48.3173 87.989 48.4895C88.0527 48.6618 88.0531 48.8554 87.9899 49.0279C87.9268 49.2005 87.8054 49.3377 87.6524 49.4094C87.4993 49.4812 87.3273 49.4816 87.174 49.4105Z"/><path fill="#CCC" d="M103.833 32.6179L87.1374 24.879C87.0615 24.8438 86.9925 24.7922 86.9343 24.727C86.8762 24.6618 86.83 24.5843 86.7984 24.4991C86.7669 24.4138 86.7505 24.3223 86.7504 24.23C86.7502 24.1376 86.7662 24.0461 86.7975 23.9606C86.8287 23.8752 86.8746 23.7976 86.9325 23.7321C86.9905 23.6667 87.0593 23.6147 87.135 23.5791C87.2108 23.5436 87.292 23.5252 87.3741 23.5251C87.4562 23.5249 87.5375 23.5429 87.6134 23.5781L104.309 31.3169C104.462 31.388 104.584 31.5246 104.648 31.6969C104.712 31.8691 104.712 32.0628 104.649 32.2353C104.586 32.4078 104.465 32.545 104.312 32.6168C104.159 32.6885 103.986 32.6889 103.833 32.6179Z"/><path fill="#CCC" d="M98.0269 35.1675L85.4978 29.36C85.3446 29.289 85.2227 29.1523 85.1589 28.9801C85.0952 28.8079 85.0948 28.6142 85.1579 28.4417C85.2211 28.2692 85.3425 28.1319 85.4955 28.0602C85.6485 27.9885 85.8206 27.9881 85.9739 28.0591L98.503 33.8666C98.6562 33.9376 98.7782 34.0743 98.8419 34.2465C98.9056 34.4188 98.906 34.6124 98.8429 34.785C98.7797 34.9575 98.6583 35.0947 98.5053 35.1664C98.3523 35.2382 98.1802 35.2386 98.0269 35.1675V35.1675Z"/><path fill="#CCC" d="M94.6529 58.1182L56.8947 40.6164C56.8188 40.5813 56.7498 40.5296 56.6917 40.4644C56.6335 40.3992 56.5873 40.3218 56.5558 40.2365C56.5242 40.1512 56.5079 40.0598 56.5077 39.9674C56.5075 39.875 56.5235 39.7835 56.5548 39.6981C56.586 39.6127 56.6319 39.535 56.6899 39.4696C56.7478 39.4041 56.8166 39.3521 56.8924 39.3166C56.9681 39.2811 57.0494 39.2627 57.1314 39.2625C57.2135 39.2623 57.2948 39.2803 57.3707 39.3155L95.129 56.8172C95.2822 56.8883 95.4042 57.0249 95.4679 57.1972C95.5317 57.3694 95.532 57.5631 95.4689 57.7356C95.4058 57.9081 95.2843 58.0453 95.1313 58.1171C94.9783 58.1888 94.8062 58.1892 94.6529 58.1182V58.1182Z"/><path fill="#CCC" d="M83.8948 58.3726L55.2551 45.0975C55.1792 45.0623 55.1102 45.0107 55.052 44.9455C54.9938 44.8803 54.9477 44.8028 54.9161 44.7176C54.8845 44.6323 54.8682 44.5408 54.868 44.4485C54.8679 44.3561 54.8839 44.2646 54.9151 44.1791C54.9464 44.0937 54.9923 44.0161 55.0502 43.9506C55.1081 43.8852 55.1769 43.8332 55.2527 43.7977C55.3285 43.7621 55.4097 43.7438 55.4918 43.7436C55.5739 43.7434 55.6552 43.7614 55.7311 43.7966L84.3708 57.0717C84.4467 57.1069 84.5157 57.1585 84.5739 57.2237C84.632 57.2889 84.6782 57.3663 84.7098 57.4516C84.7413 57.5369 84.7577 57.6283 84.7578 57.7207C84.758 57.8131 84.742 57.9046 84.7107 57.99C84.6795 58.0755 84.6336 58.1531 84.5757 58.2186C84.5177 58.284 84.4489 58.336 84.3732 58.3715C84.2974 58.4071 84.2162 58.4254 84.1341 58.4256C84.052 58.4258 83.9707 58.4078 83.8948 58.3726Z"/><path fill="#CCC" d="M91.3736 67.0803L53.6154 49.5786C53.4621 49.5075 53.3402 49.3708 53.2765 49.1986C53.2127 49.0264 53.2124 48.8327 53.2755 48.6602C53.3386 48.4877 53.46 48.3505 53.6131 48.2787C53.7661 48.207 53.9381 48.2066 54.0914 48.2776L91.8496 65.7793C92.0029 65.8504 92.1248 65.987 92.1886 66.1593C92.2523 66.3315 92.2527 66.5252 92.1896 66.6977C92.1264 66.8702 92.005 67.0074 91.852 67.0792C91.699 67.1509 91.5269 67.1513 91.3736 67.0803Z"/><path fill="#CCC" d="M89.734 71.5613L51.9758 54.0596C51.8225 53.9886 51.7006 53.8519 51.6368 53.6797C51.5731 53.5074 51.5727 53.3138 51.6358 53.1412C51.699 52.9687 51.8204 52.8315 51.9734 52.7598C52.1264 52.688 52.2985 52.6876 52.4518 52.7587L90.21 70.2604C90.2859 70.2956 90.3549 70.3472 90.4131 70.4124C90.4712 70.4776 90.5174 70.5551 90.549 70.6403C90.5805 70.7256 90.5969 70.817 90.597 70.9094C90.5972 71.0018 90.5812 71.0933 90.5499 71.1787C90.5187 71.2642 90.4728 71.3418 90.4149 71.4073C90.3569 71.4727 90.2881 71.5247 90.2124 71.5602C90.1366 71.5958 90.0553 71.6141 89.9733 71.6143C89.8912 71.6145 89.8099 71.5965 89.734 71.5613Z"/><path fill="#71B79C" d="M71.3138 71.2285C72.0695 71.2734 72.8271 71.2474 73.579 71.1507C74.256 71.0616 74.9612 70.939 75.5546 70.5383C75.8113 70.3736 76.0298 70.143 76.1924 69.8653C76.3549 69.5875 76.457 69.2706 76.4902 68.9401C76.5164 68.6258 76.453 68.3102 76.3093 68.0391C76.1655 67.768 75.9489 67.5554 75.6906 67.4321C75.4286 67.308 75.1417 67.2658 74.8601 67.3102C74.5786 67.3546 74.3129 67.4839 74.0913 67.6843C73.8546 67.9157 73.6673 68.2043 73.5435 68.5285C73.4197 68.8527 73.3625 69.2043 73.3762 69.5568C73.4074 71.0047 74.4252 72.4346 75.5554 73.0369C76.8284 73.7153 78.5668 73.1388 78.8928 71.4683C78.9606 71.1208 78.5402 71.0001 78.3644 71.2233C78.1244 71.5211 77.9945 71.9108 78.0012 72.3127C78.0079 72.7147 78.1507 73.0986 78.4004 73.386C78.6501 73.6735 78.9879 73.8428 79.3448 73.8593C79.7017 73.8759 80.0507 73.7384 80.3206 73.4751L79.8474 73.2557C79.9849 73.9043 80.2718 74.5007 80.6791 74.9849C81.0864 75.4691 81.5999 75.8241 82.1677 76.014C82.448 76.1085 82.7385 76.1584 83.0311 76.1621C83.3865 76.1632 83.7517 76.364 84.0917 76.4887L86.5417 77.387C86.9021 77.5192 87.1307 76.9035 86.7674 76.7702L84.5485 75.9566C84.1788 75.821 83.8099 75.6817 83.4391 75.5498C83.174 75.4555 82.8838 75.5066 82.6072 75.4511C82.0897 75.3409 81.6107 75.0673 81.226 74.6623C80.8413 74.2573 80.5668 73.7376 80.4345 73.1638C80.4265 73.1067 80.4055 73.0529 80.3736 73.0075C80.3418 72.9622 80.3001 72.9268 80.2526 72.9048C80.2051 72.8827 80.1534 72.8748 80.1024 72.8818C80.0514 72.8887 80.0028 72.9103 79.9613 72.9444C79.8063 73.1105 79.5993 73.2009 79.3854 73.1959C79.1715 73.191 78.9679 73.0911 78.8191 72.9181C78.6703 72.745 78.5882 72.5128 78.5908 72.272C78.5933 72.0311 78.6803 71.8012 78.8328 71.6322L78.3044 71.3873C78.0941 72.4649 76.9261 72.8693 76.0844 72.5577C75.143 72.2092 74.3339 71.1952 74.0531 70.133C73.978 69.8777 73.9505 69.6078 73.9722 69.3401C73.994 69.0724 74.0646 68.8126 74.1795 68.5769C74.282 68.362 74.4418 68.1887 74.6364 68.0814C74.8311 67.9741 75.0507 67.9382 75.2644 67.9788C75.4553 68.0091 75.6282 68.1218 75.7466 68.2929C75.8651 68.464 75.9198 68.6803 75.8993 68.896C75.8679 69.1386 75.784 69.3689 75.6549 69.5665C75.5259 69.7641 75.3557 69.9229 75.1592 70.029C74.6294 70.3491 73.995 70.4288 73.4065 70.5015C72.7355 70.5836 72.0598 70.6053 71.3858 70.5662C71.0075 70.5447 70.9315 71.2068 71.3138 71.2285L71.3138 71.2285Z"/><path fill="#fff" d="M111.819 52.4573V105.457H27.6042V42.8703H40.7828L52.9344 52.4573H111.819Z"/><path fill="#71B79C" d="M67.1399 95.5085H32.7471V98.5836H67.1399V95.5085Z"/><path fill="#71B79C" d="M49.9435 89.5392H32.7471V92.6143H49.9435V89.5392Z"/><path fill="#3F3D56" d="M111.979 105.638H27.4436V42.6894H40.8336L52.9859 52.2765H111.979V105.638ZM27.765 105.276H111.658V52.6382H52.8844L40.7322 43.0512H27.765V105.276Z"/><path fill="#9F616A" d="M146.112 99.2413L143.263 100.387L137.979 88.5621L142.185 86.8704L146.112 99.2413Z"/><path fill="#2F2E41" d="M138.638 105.754L138.597 105.623C138.259 104.555 138.311 103.38 138.742 102.356C139.173 101.332 139.947 100.542 140.895 100.159L146.507 97.9017L147.827 102.058L138.638 105.754Z"/><path fill="#9F616A" d="M127.583 102.413H124.557L123.117 89.2763L127.583 89.2764L127.583 102.413Z"/><path fill="#2F2E41" d="M128.354 105.715L118.597 105.715V105.576C118.597 105.014 118.695 104.458 118.886 103.94C119.077 103.421 119.357 102.95 119.71 102.553C120.062 102.156 120.481 101.841 120.942 101.627C121.402 101.412 121.896 101.301 122.395 101.301H122.395L128.355 101.301L128.354 105.715Z"/><path fill="#71B79C" d="M134.479 18.4842L133.163 15.5574C133.163 15.5574 128.26 16.9399 127.815 20.138L134.479 18.4842Z"/><path fill="#2F2E41" d="M139.909 51.9505L136.33 74.4292L145.833 93.3444L140.156 95.8446L130.53 77.5092L129.296 72.5085L128.555 98.6227L123.435 98.4478L121.088 74.0634L124.853 51.395L139.909 51.9505Z"/><path fill="#3F3D56" d="M139.169 41.7949L139.045 28.6134C139.045 23.0269 135.778 18.9093 135.325 18.5284C135.112 17.7631 134.73 17.2341 134.19 16.9572C133.101 16.4018 131.769 17.0683 131.712 17.0983L127.717 18.7841L127.698 18.8458C127.656 18.9869 123.625 33.8754 122.613 37.6121C122.469 38.1482 122.386 38.455 122.386 38.455C122.386 38.455 122.401 39.3191 122.429 40.6628C122.519 45.283 122.73 55.5743 122.815 56.0063C122.815 56.0063 130.194 57.2654 133.116 57.2654C138.373 57.2654 141.712 56.1333 141.787 56.1139L141.907 56.0857L139.169 41.7949Z"/><path fill="#9F616A" d="M131.666 13.8908C134.284 12.2804 135.246 8.58662 133.815 5.64056C132.384 2.6945 129.102 1.61177 126.485 3.22222C123.867 4.83267 122.905 8.52645 124.336 11.4725C125.767 14.4186 129.049 15.5013 131.666 13.8908Z"/><path fill="#000" d="M129.674 39.0052L122.429 40.6628C122.401 39.3191 122.386 38.455 122.386 38.455C122.386 38.455 122.469 38.1482 122.613 37.6121L129.674 39.0052Z" opacity=".2"/><path fill="#9F616A" d="M108.22 37.2677C108.477 37.5159 108.78 37.6977 109.106 37.8001C109.433 37.9026 109.775 37.9232 110.109 37.8606C110.444 37.798 110.762 37.6537 111.041 37.4378C111.32 37.2219 111.554 36.9397 111.726 36.6111L119.802 38.437L118.195 33.9715L110.773 32.9222C110.263 32.6336 109.677 32.5655 109.126 32.7308C108.574 32.896 108.096 33.2832 107.782 33.8188C107.467 34.3544 107.338 35.0014 107.419 35.637C107.499 36.2727 107.785 36.8529 108.22 37.2677Z"/><path fill="#71B79C" d="M117.785 33.7031L114.877 33.2507L113.906 37.7997L117.578 38.0363L117.785 33.7031Z"/><path fill="#3F3D56" d="M116.791 32.8264L125.397 31.7517L129.963 22.6336C130.435 21.6912 131.196 20.9744 132.103 20.6169C133.01 20.2594 134.002 20.2856 134.893 20.6908C135.784 21.0959 136.513 21.8523 136.945 22.8185C137.377 23.7848 137.482 24.895 137.24 25.9419L137.214 26.0551L129.538 38.66L115.186 39.4567L116.791 32.8264Z"/><path fill="#2F2E41" d="M133.676 13.8348L129.193 14.0159C128.92 14.0269 128.178 10.7076 128.081 10.019C128.004 9.57066 127.785 9.16912 127.465 8.88934C127.144 8.60957 126.744 8.47068 126.339 8.49863C126.004 8.53431 125.157 7.82864 124.284 6.99306C122.626 5.4067 122.713 2.42728 124.534 1.0868C124.584 1.05017 124.632 1.01671 124.68 0.986445C125.829 0.262693 127.173 0.019648 128.49 0.00111431C129.683 -0.0156865 130.91 0.153378 131.962 0.789154C133.847 1.92897 134.85 4.41977 134.938 6.82605C135.026 9.23232 134.341 11.5852 133.563 13.8288"/><path fill="#CBCBCB" d="M152.839 106H0.160714C0.11809 106 0.0772118 105.981 0.047072 105.947C0.0169322 105.913 0 105.867 0 105.819C0 105.771 0.0169322 105.725 0.047072 105.691C0.0772118 105.657 0.11809 105.638 0.160714 105.638H152.839C152.882 105.638 152.923 105.657 152.953 105.691C152.983 105.725 153 105.771 153 105.819C153 105.867 152.983 105.913 152.953 105.947C152.923 105.981 152.882 106 152.839 106Z"/></svg>