<svg width="35" height="35" viewBox="0 0 35 35" fill="none" xmlns="http://www.w3.org/2000/svg">
<path d="M32.0833 26.2573C32.0833 27.0594 31.4329 27.7083 30.6323 27.7083H18.951C18.5662 27.7083 18.1971 27.5554 17.925 27.2833C17.6529 27.0112 17.5 26.6421 17.5 26.2573C17.5 25.8724 17.6529 25.5034 17.925 25.2312C18.1971 24.9591 18.5662 24.8062 18.951 24.8062H30.6323C31.4344 24.8062 32.0833 25.4552 32.0833 26.2573Z" fill="white"/>
<path d="M32.0833 17.5C32.0833 18.3021 31.4329 18.951 30.6322 18.951H4.36767C3.98283 18.951 3.61375 18.7982 3.34163 18.526C3.0695 18.2539 2.91663 17.8848 2.91663 17.5C2.91663 17.1152 3.0695 16.7461 3.34163 16.474C3.61375 16.2018 3.98283 16.049 4.36767 16.049H30.6322C31.4343 16.049 32.0833 16.6994 32.0833 17.5Z" fill="white"/>
<path d="M30.6323 10.1937C31.0171 10.1937 31.3862 10.0409 31.6583 9.76874C31.9304 9.49662 32.0833 9.12754 32.0833 8.7427C32.0833 8.35786 31.9304 7.98878 31.6583 7.71666C31.3862 7.44453 31.0171 7.29166 30.6323 7.29166H13.1177C12.9271 7.29166 12.7384 7.32919 12.5624 7.40211C12.3863 7.47503 12.2264 7.58191 12.0916 7.71666C11.9569 7.8514 11.85 8.01136 11.7771 8.18741C11.7042 8.36346 11.6666 8.55214 11.6666 8.7427C11.6666 8.93325 11.7042 9.12194 11.7771 9.29799C11.85 9.47404 11.9569 9.634 12.0916 9.76874C12.2264 9.90348 12.3863 10.0104 12.5624 10.0833C12.7384 10.1562 12.9271 10.1937 13.1177 10.1937H30.6323Z" fill="white"/>
</svg>
