<svg width="1007" height="787" viewBox="0 0 1007 787" fill="none" xmlns="http://www.w3.org/2000/svg">
<g clip-path="url(#clip0)">
<path opacity="0.1" d="M886.29 364.07C897.73 387.56 890.45 421.26 906.65 440.46C918.53 454.54 938.25 454.46 951.72 466.34C962.2 475.61 967.42 490.78 972.17 505.18L995.25 575.18C1005.76 607.06 1014.74 648.1 993.57 671.47C980.88 685.47 961.71 687.06 944.38 685.57C818.95 674.78 718.06 548.28 593.06 531.95C504.71 520.4 417.42 565.84 328.56 563.33C281.56 562 235.67 547.33 190.32 532.69C155.44 521.46 116.73 506.69 100.1 468.83C92.67 451.91 90.36 431.47 79.32 417.56C70.86 406.89 58.63 401.84 48.12 394.11C2.33998 360.4 -2.91002 285 1.07998 221.51C3.28998 186.29 7.02998 150.23 20.96 118.97C34.89 87.7101 61.1 61.8601 91.02 60.8401C109.94 60.1901 128.02 69.2101 146.43 74.2501C164.84 79.2901 186.43 79.4401 200.25 64.2501C211.59 51.7801 215.15 31.7501 226.49 19.2501C235.32 9.54006 247.64 5.77006 259.55 3.46006C323.6 -8.95994 391.83 12.6001 442.06 61.1201C454.27 72.9101 465.9 86.5101 480.82 92.5601C500.69 100.61 522.41 93.7901 543.42 93.9601C617.54 94.5601 667.81 174.78 720.05 225.35C750.59 254.92 780.13 261.29 813.27 280.99C833.78 293.19 873.92 338.68 886.29 364.07Z" fill="#00BFA6"/>
<path d="M304.19 356.78H259.35V766.42H304.19V356.78Z" fill="url(#paint0_linear)"/>
<path d="M353.1 784.76H212.47L262.41 753.17H300.11L353.1 784.76Z" fill="url(#paint1_linear)"/>
<path d="M61.6602 146.87C61.6602 146.87 251.22 -40.6 496.78 146.87V308.87C496.78 308.87 304.19 425.04 61.6702 308.87L61.6602 146.87Z" fill="url(#paint2_linear)"/>
<path d="M75.4199 150.99C75.4199 150.99 252.97 -24.65 483.02 150.99V302.77C483.02 302.77 302.61 411.59 75.4199 302.77V150.99Z" fill="url(#paint3_linear)"/>
<path d="M332.71 240.62H224.7V332.33H332.71V240.62Z" fill="url(#paint4_linear)"/>
<path d="M323.54 248.4H233.87V324.54H323.54V248.4Z" fill="url(#paint5_linear)"/>
<g opacity="0.1">
<path opacity="0.1" d="M316.51 472.1L282.44 413.4L252.22 470.04L226 410.68L198.72 471.12L197.77 470.74C208.77 438.62 197.86 347.57 197.77 346.65L197.35 343.24L226.03 408.17L249.94 355.17L282.47 411.24L312.22 355.4L337.42 412.91L361.88 347.14L368 345.92L367.86 346.66C367.68 347.6 350.97 435.66 360.47 465.52L362.73 470.68L361.83 471.15C360.853 469.483 360.074 467.708 359.51 465.86L337.51 415.63L316.51 472.1ZM283 412.31L316.3 469.72L336.91 414.31L312.13 357.76L283 412.31ZM226.52 409.4L252.22 467.71L281.8 412.33L249.99 357.4L226.52 409.4ZM199.1 349.84C200.84 365.52 207.61 432.41 200.45 464.69L225.45 409.4L199.1 349.84ZM338.02 414.29L358.09 460.09C351.99 427.49 365.09 355.98 366.73 347.24L362.66 348.05L338.02 414.29Z" fill="url(#paint6_linear)"/>
</g>
<g opacity="0.1">
<path opacity="0.1" d="M227.74 472.23L202.46 408.94L203.41 408.56L227.79 469.56L252.22 413.81L219.65 353.97L220.54 353.48L252.73 412.63L277.14 356.95H277.44L349.92 350.1L282.78 469.93L252.85 414.93L227.74 472.23ZM253.37 413.76L282.79 467.82L348.1 351.27L277.86 357.91L253.37 413.76Z" fill="url(#paint7_linear)"/>
</g>
<g opacity="0.1">
<path opacity="0.1" d="M335.84 469.09L335.32 468.09L275.2 351.92L276.11 351.45L335.71 466.61L358.11 408.57L359.06 408.94L335.84 469.09Z" fill="url(#paint8_linear)"/>
</g>
<path d="M280.75 331.31C232.91 331.31 194.14 337.7 194.14 345.58C194.14 353.46 232.92 359.85 280.75 359.85C328.58 359.85 367.36 353.46 367.36 345.58C367.36 337.7 328.58 331.31 280.75 331.31ZM280.75 353.73C236.85 353.73 201.27 349.62 201.27 344.56C201.27 339.5 236.85 335.4 280.75 335.4C324.65 335.4 360.22 339.49 360.22 344.56C360.22 349.63 324.64 353.73 280.75 353.73V353.73Z" fill="url(#paint9_linear)"/>
<g opacity="0.2">
<path opacity="0.2" d="M280.75 331.31C232.91 331.31 194.14 337.7 194.14 345.58C194.14 353.46 232.92 359.85 280.75 359.85C328.58 359.85 367.36 353.46 367.36 345.58C367.36 337.7 328.58 331.31 280.75 331.31ZM280.75 353.73C236.85 353.73 201.27 349.62 201.27 344.56C201.27 339.5 236.85 335.4 280.75 335.4C324.65 335.4 360.22 339.49 360.22 344.56C360.22 349.63 324.64 353.73 280.75 353.73V353.73Z" fill="url(#paint10_linear)"/>
</g>
<path d="M280.75 328.26C232.91 328.26 194.14 334.65 194.14 342.53C194.14 350.41 232.92 356.8 280.75 356.8C328.58 356.8 367.36 350.41 367.36 342.53C367.36 334.65 328.58 328.26 280.75 328.26ZM280.75 350.68C236.85 350.68 201.27 346.57 201.27 341.51C201.27 336.45 236.86 332.34 280.75 332.34C324.64 332.34 360.22 336.4 360.22 341.5C360.22 346.6 324.64 350.67 280.75 350.67V350.68Z" fill="url(#paint11_linear)"/>
<path d="M303.72 358.04H259.72V760.04H303.72V358.04Z" fill="#E8EAF1"/>
<path d="M351.72 778.04H213.72L262.72 747.04H299.72L351.72 778.04Z" fill="#E8EAF1"/>
<path d="M65.7202 152.04C65.7202 152.04 251.72 -31.96 492.72 152.04V311.04C492.72 311.04 303.72 425.04 65.7202 311.04V152.04Z" fill="#E8EAF1"/>
<path d="M79.2202 156.09C79.2202 156.09 253.46 -16.2799 479.22 156.09V305.03C479.22 305.03 302.22 411.82 79.2202 305.03V156.09Z" fill="#F3F5F7"/>
<path d="M331.72 244.04H225.72V334.04H331.72V244.04Z" fill="white"/>
<path d="M322.72 251.68H234.72V326.4H322.72V251.68Z" fill="#F3F5F7"/>
<path opacity="0.1" d="M315.82 471.21L282.38 413.57L252.67 469.18L226.94 410.93L200.22 470.25L199.29 469.88C210.13 438.35 199.38 349 199.29 348.1L198.88 344.75L227.03 408.47L250.5 356.47L282.42 411.47L311.69 356.67L336.42 413.11L360.42 348.56L366.42 347.36L366.28 348.09C366.1 349.02 349.7 435.43 359.03 464.74L361.25 469.8L360.36 470.26C359.4 468.625 358.635 466.883 358.08 465.07L336.48 415.77L315.82 471.21ZM282.94 412.53L315.62 468.87L335.84 414.5L311.53 359L282.94 412.53ZM227.5 409.71L252.76 466.91L281.76 412.56L250.51 358.68L227.5 409.71ZM200.59 351.26C202.3 366.64 208.94 432.26 201.91 463.97L226.4 409.71L200.59 351.26ZM336.92 414.47L356.61 459.4C350.61 427.4 363.47 357.23 365.09 348.66L361.09 349.46L336.92 414.47Z" fill="black"/>
<path opacity="0.1" d="M228.7 471.34L203.89 409.23L204.82 408.86L228.75 468.75L252.75 414.01L220.75 355.29L221.63 354.81L253.22 412.81L277.22 358.17H277.51L348.64 351.45L282.71 469.08L253.34 415.08L228.7 471.34ZM253.85 413.96L282.72 467.01L346.82 352.63L277.89 359.14L253.85 413.96Z" fill="black"/>
<path opacity="0.1" d="M334.79 468.26L334.27 467.27L275.27 353.27L276.16 352.81L334.65 465.82L356.64 408.86L357.57 409.22L334.79 468.26Z" fill="black"/>
<path d="M280.72 333.04C233.78 333.04 195.72 339.31 195.72 347.04C195.72 354.77 233.78 361.04 280.72 361.04C327.66 361.04 365.72 354.77 365.72 347.04C365.72 339.31 327.66 333.04 280.72 333.04ZM280.72 355.04C237.64 355.04 202.72 351.04 202.72 346.04C202.72 341.04 237.64 337.04 280.72 337.04C323.8 337.04 358.72 341.04 358.72 346.04C358.72 351.04 323.8 355.04 280.72 355.04Z" fill="#5F546F"/>
<path opacity="0.2" d="M280.72 333.04C233.78 333.04 195.72 339.31 195.72 347.04C195.72 354.77 233.78 361.04 280.72 361.04C327.66 361.04 365.72 354.77 365.72 347.04C365.72 339.31 327.66 333.04 280.72 333.04ZM280.72 355.04C237.64 355.04 202.72 351.04 202.72 346.04C202.72 341.04 237.64 337.04 280.72 337.04C323.8 337.04 358.72 341.04 358.72 346.04C358.72 351.04 323.8 355.04 280.72 355.04Z" fill="black"/>
<path d="M280.72 330.04C233.78 330.04 195.72 336.31 195.72 344.04C195.72 351.77 233.78 358.04 280.72 358.04C327.66 358.04 365.72 351.77 365.72 344.04C365.72 336.31 327.66 330.04 280.72 330.04ZM280.72 352.04C237.64 352.04 202.72 348.04 202.72 343.04C202.72 338.04 237.64 334.04 280.72 334.04C323.8 334.04 358.72 338.04 358.72 343.04C358.72 348.04 323.8 352.04 280.72 352.04Z" fill="#5F546F"/>
<path d="M748.22 587.4C741.22 586.4 728.28 575.4 728.28 575.4C727.342 573.997 726.059 572.859 724.555 572.094C723.051 571.329 721.376 570.962 719.69 571.03L706.84 552.96C701.859 544.4 695.95 536.415 689.22 529.15C688.12 527.93 686.983 526.747 685.81 525.6C682.344 522.154 678.62 518.978 674.67 516.1C672.071 514.162 669.618 512.036 667.33 509.74C665.215 507.633 663.212 505.417 661.33 503.1L652.39 490.58L651.79 489.73C652.018 488.507 652.079 487.259 651.97 486.02C651.97 485.73 651.91 485.44 651.87 485.15L614.97 441.77L603.97 419.33C603.84 419.44 603.4 419.81 602.71 420.33L602.51 419.76V419.5V417.61C602.454 402.077 606.309 386.781 613.72 373.13C616.209 368.547 617.512 363.415 617.51 358.2C617.51 357.78 617.51 357.36 617.51 356.94L617.32 356.73C616.97 356.34 616.17 355.44 615.14 354.11C615.27 353.85 615.41 353.58 615.54 353.33C620.12 344.91 626.49 343.47 626.49 343.47C647.93 340.47 663.39 326.02 663.39 326.02C679.39 317.02 676.39 309.02 676.39 309.02L661.93 274.12L652.93 255.67L650.44 247.19C649.624 241.549 648.472 235.963 646.99 230.46C644.86 222.34 634.25 220.03 629.13 226.68C629.01 226.84 628.88 227.01 628.76 227.19C626.493 230.466 625.53 234.47 626.059 238.418C626.588 242.367 628.571 245.976 631.62 248.54C636.62 252.8 640.97 257.17 640.97 257.17C649.97 259.66 655.97 306.03 655.97 306.03L649.97 310.03C645.369 310.269 640.867 311.458 636.748 313.523C632.629 315.589 628.983 318.485 626.04 322.03H607.22C607.22 321.95 607.27 321.87 607.3 321.78L604.18 321.08L595.18 319.08L591.85 318.33L591.8 318.54L590.86 318.33V318.46C589.596 316.457 588.46 314.376 587.46 312.23C587.728 312.27 588.001 312.27 588.27 312.23C588.34 312.08 588.4 311.93 588.45 311.78H588.77C590.16 308.78 588.96 305.03 590.3 301.97C591.023 300.679 591.825 299.433 592.7 298.24C594.7 294.79 594.46 290.47 593.87 286.51C593.23 282.25 592.25 277.9 589.8 274.35C587.35 270.8 583.12 268.2 578.8 268.76C575.4 269.21 572.42 271.54 569 271.76C566.58 271.9 564.26 270.95 562 270.21C559.525 269.413 556.986 268.834 554.41 268.48C552.7 268.24 550.69 268.21 549.54 269.48L549.44 269.61C549.295 269.721 549.161 269.844 549.04 269.98C548.588 270.544 548.249 271.189 548.04 271.88L545.83 277.97C545.716 278.177 545.656 278.409 545.656 278.645C545.656 278.881 545.716 279.113 545.83 279.32C546.03 279.57 546.38 279.64 546.65 279.81C548.4 280.94 546.05 283.73 547.5 285.1C548.37 285.92 550.23 286.01 552.07 286C550.396 288.638 549.382 291.64 549.115 294.753C548.848 297.866 549.335 300.997 550.535 303.882C551.735 306.767 553.613 309.32 556.009 311.325C558.405 313.329 561.249 314.727 564.3 315.4C564.3 315.73 564.3 316.06 564.3 316.4C564.348 319.037 564.14 321.673 563.68 324.27V324.27L562.22 324.4C559.79 324.53 554.88 324.72 550.59 324.52C549.153 324.463 547.721 324.326 546.3 324.11C546.3 324.11 546.13 325.93 545.8 328.72L544.8 329C535.474 331.68 527.375 337.529 521.9 345.54L499.46 358.54C499.46 358.54 489.46 356.05 460.57 380.98L439.63 391.98C439.63 391.98 407.64 401.4 413.62 410.86C419.6 420.32 449.52 399.4 449.52 399.4L461.52 393.92L497.92 377.92C497.92 377.92 509.92 369.92 518.86 366.92C527.8 363.92 536.81 354.92 536.81 354.92L539.06 354.8L540.06 354.74C539.911 355.009 539.747 355.269 539.57 355.52C539.48 355.66 539.38 355.79 539.28 355.91V436.18L539.12 438.41H539.19L536.79 471.06C536.79 471.06 537.29 486.06 535.29 494.49C533.29 502.92 536.79 537.37 536.79 537.37C536.79 537.37 538.1 537.37 540.23 537.22L540.17 538.22L539.29 552.33C539.29 552.33 537.61 557.77 547.29 560.6C549.507 561.242 551.616 562.209 553.55 563.47L564.71 570.78L576.18 577.78L578.5 582.65L578.61 582.89L576.17 581.4C576.17 581.4 574.17 586.4 580.66 592.87C583.09 595.044 584.986 597.75 586.2 600.776C587.414 603.803 587.914 607.069 587.66 610.32C587.66 610.32 588.66 622.32 594.66 619.32C594.66 619.32 604.13 617.32 603.66 600.87C603.66 600.87 599.88 587.17 604.28 581.38C604.4 581.22 604.527 581.067 604.66 580.92C609.66 575.44 603.16 566.92 603.16 566.92C603.16 566.92 591.61 562.26 590.96 570L590.48 569.79C588.4 568.79 584.67 566.36 580.72 560.44C580.72 560.44 574.24 543.99 564.27 542.49L565.94 533.02L566.13 531.93C569.56 530.31 572.34 528.22 573.74 525.53L573.8 525.41V525.36V525.29V525.22V525.15L573.85 525.05V524.97L573.9 524.86L573.96 524.74V524.64L574.03 524.5L574.22 524.4L574.29 524.25L574.35 524.12L574.43 523.95L574.5 523.81L574.58 523.64L574.67 523.46L574.74 523.32L574.84 523.11L574.91 522.97L575.34 522.04L575.4 521.92L575.52 521.66L575.61 521.47L575.74 521.18L575.82 521.01L575.97 520.67L576.03 520.53L576.19 520.18L576.27 520.01L576.43 519.65L576.5 519.49L576.67 519.11L576.74 518.96L576.92 518.56L576.98 518.41L577.16 517.99L577.22 517.85L577.42 517.4V517.32C580.61 509.9 584.62 499.23 584.42 492.91C584.446 492.407 584.446 491.903 584.42 491.4H584.3V491.3C584.3 491.09 584.22 490.89 584.16 490.7L611.08 496.7L627.08 514.15H627.15H627.21H627.28H627.36H627.44L627.54 514.1H627.63L627.76 514.04L627.86 513.99L628 513.92L628.12 513.86L628.29 513.77L628.4 513.71L628.59 513.61L628.71 513.54L628.91 513.44L629.05 513.36L629.27 513.24L629.41 513.17L629.64 513.04L629.8 512.95L630.05 512.81L630.22 512.4L630.5 512.24L630.65 512.16L630.94 512L631.11 511.9L631.41 511.73L631.57 511.63L631.89 511.44L632.06 511.34L632.39 511.14L632.55 511.04L632.9 510.83H632.96L633.52 511.48L640.52 519.6C647.52 522.6 663.46 537.55 663.46 537.55C665.3 541.96 673.09 548.26 677.07 551.28C678.208 552.121 679.416 552.864 680.68 553.5C682.86 554.63 685.93 557.32 688.74 560.04C692.407 563.664 696.341 567.007 700.51 570.04C704.365 572.979 707.794 576.439 710.7 580.32V580.32L711.04 580.76C708.66 588.76 722.28 596.89 722.28 596.89C727.28 595.89 742.72 609.89 742.72 609.89C742.72 609.89 757.18 621.36 763.16 608.89C769.14 596.42 748.22 587.4 748.22 587.4ZM721.8 574.04L719.8 571.21C720.343 571.466 720.81 571.858 721.155 572.349C721.501 572.84 721.713 573.412 721.77 574.01L721.8 574.04Z" fill="url(#paint12_linear)"/>
<path d="M597.45 329.25C597.45 329.25 547 358.64 557.78 341.98C562.442 334.963 564.882 326.704 564.78 318.28C564.778 315.53 564.408 312.792 563.68 310.14L584.74 300.34C584.375 303.225 584.635 306.154 585.5 308.93C588.45 319.35 597.45 329.25 597.45 329.25Z" fill="#DB8B8B"/>
<path opacity="0.1" d="M585.47 308.94C583.471 312.511 580.38 315.346 576.65 317.029C572.921 318.712 568.75 319.154 564.75 318.29C564.748 315.54 564.378 312.802 563.65 310.15L584.71 300.35C584.345 303.235 584.604 306.164 585.47 308.94V308.94Z" fill="black"/>
<path d="M568.8 317.74C579.349 317.74 587.9 309.189 587.9 298.64C587.9 288.091 579.349 279.54 568.8 279.54C558.252 279.54 549.7 288.091 549.7 298.64C549.7 309.189 558.252 317.74 568.8 317.74Z" fill="#DB8B8B"/>
<path opacity="0.1" d="M556.59 288.48C558.436 288.858 560.065 289.932 561.14 291.48C562.4 293.48 562.37 296.22 564.14 297.78C565.476 298.767 567.145 299.191 568.79 298.96C570.415 298.724 572.062 298.667 573.7 298.79C576.35 299.22 578.52 301.18 579.99 303.42C581.327 305.743 582.516 308.148 583.55 310.62C583.973 311.601 584.577 312.493 585.33 313.25C585.71 313.625 586.174 313.906 586.683 314.069C587.192 314.233 587.732 314.274 588.26 314.19C589.63 311.19 588.45 307.55 589.76 304.56C590.468 303.293 591.253 302.071 592.11 300.9C594.11 297.51 593.84 293.27 593.25 289.38C592.62 285.19 591.66 280.92 589.25 277.44C586.84 273.96 582.69 271.44 578.49 271.95C575.15 272.39 572.22 274.68 568.86 274.88C566.49 275.02 564.2 274.09 561.94 273.36C559.511 272.577 557.018 272.008 554.49 271.66C552.81 271.43 550.84 271.39 549.71 272.66C549.261 273.21 548.921 273.842 548.71 274.52L546.54 280.52C546.428 280.724 546.369 280.952 546.369 281.185C546.369 281.417 546.428 281.646 546.54 281.85C546.74 282.09 547.08 282.16 547.34 282.34C549.06 283.45 546.75 286.19 548.17 287.54C549.59 288.89 554.6 288.01 556.59 288.48Z" fill="black"/>
<path d="M557.08 287.99C558.926 288.368 560.555 289.442 561.63 290.99C562.89 292.99 562.86 295.73 564.63 297.29C565.966 298.277 567.635 298.701 569.28 298.47C570.906 298.234 572.552 298.177 574.19 298.3C576.84 298.73 579.01 300.69 580.48 302.93C581.817 305.253 583.006 307.658 584.04 310.13C584.463 311.111 585.067 312.003 585.82 312.76C586.201 313.135 586.664 313.416 587.173 313.579C587.682 313.743 588.222 313.784 588.75 313.7C590.12 310.7 588.94 307.06 590.25 304.07C590.959 302.803 591.743 301.581 592.6 300.41C594.6 297.02 594.33 292.78 593.74 288.89C593.11 284.7 592.15 280.43 589.74 276.95C587.33 273.47 583.18 270.95 578.98 271.46C575.64 271.9 572.71 274.19 569.35 274.39C566.98 274.53 564.69 273.6 562.43 272.87C560.001 272.087 557.508 271.518 554.98 271.17C553.3 270.94 551.33 270.9 550.2 272.17C549.751 272.72 549.412 273.352 549.2 274.03L547.03 280.03C546.918 280.234 546.859 280.462 546.859 280.695C546.859 280.928 546.918 281.156 547.03 281.36C547.23 281.6 547.57 281.67 547.83 281.85C549.55 282.96 547.24 285.7 548.66 287.05C550.08 288.4 555.09 287.52 557.08 287.99Z" fill="#472727"/>
<path d="M662.1 327.78C662.1 327.78 646.92 341.98 625.86 344.92C625.86 344.92 619.6 346.34 615.1 354.61C613.46 357.718 612.297 361.056 611.65 364.51L589.05 326.22L587.65 323.85H625.36C628.255 320.374 631.839 317.536 635.885 315.514C639.931 313.492 644.352 312.329 648.87 312.1L654.75 308.18C654.75 308.18 648.87 262.63 640.06 260.18C640.06 260.18 635.76 255.88 630.87 251.7C627.868 249.18 625.915 245.629 625.396 241.744C624.876 237.86 625.826 233.921 628.06 230.7C628.18 230.53 628.3 230.36 628.43 230.2C633.43 223.67 643.88 225.94 645.98 233.92C647.438 239.341 648.57 244.844 649.37 250.4L651.82 258.73L660.64 276.85L674.84 311.13C674.84 311.13 677.77 318.97 662.1 327.78Z" fill="#DB8B8B"/>
<path d="M549.45 329.74L546.51 355.74L539.9 356.11L537.69 356.23C537.69 356.23 528.87 365.05 520.06 367.98C511.25 370.91 499.49 378.76 499.49 378.76L463.74 394.4L451.99 399.79C451.99 399.79 422.6 420.4 416.72 411.05C410.84 401.7 442.22 392.4 442.22 392.4L462.79 381.62C491.2 357.13 500.99 359.62 500.99 359.62L522.99 346.89C528.366 339.021 536.32 333.274 545.48 330.64C546.779 330.243 548.106 329.942 549.45 329.74V329.74Z" fill="#DB8B8B"/>
<path opacity="0.1" d="M615.1 354.61C613.46 357.718 612.297 361.056 611.65 364.51L589.05 326.22C589.589 325.473 590.06 324.68 590.46 323.85C591.038 322.677 591.494 321.447 591.82 320.18L595.09 320.92L603.94 322.92L607.01 323.61C607.01 323.69 606.95 323.77 606.93 323.85C602.81 335.95 610.58 348.62 615.1 354.61Z" fill="black"/>
<path opacity="0.1" d="M549.45 329.74L546.51 355.74L539.9 356.11C542.71 351.11 544.62 337.87 545.49 330.68C546.785 330.27 548.109 329.956 549.45 329.74V329.74Z" fill="black"/>
<path d="M613.32 373.57C605.972 387.106 602.187 402.289 602.32 417.69V419.61V419.86C602.32 419.86 607.71 434.55 602.32 434.55C596.93 434.55 597.42 441.9 590.57 443.37C583.72 444.84 559.71 455.12 552.37 450.72C545.03 446.32 540.13 437.01 540.13 437.01V357.17C540.23 357.05 540.33 356.92 540.42 356.78C544.65 350.78 546.99 325.78 546.99 325.78C548.388 325.995 549.797 326.132 551.21 326.19C555.42 326.39 560.21 326.19 562.63 326.07L564.13 325.98C568.36 329.29 574.13 329.77 576.99 329.77C577.994 329.774 578.996 329.847 579.99 329.99C588.26 331.15 590.78 320.16 590.78 320.16L594.05 320.9L602.9 322.9L605.97 323.59C600.46 339.2 614.97 355.89 616.8 357.91L616.99 358.12C617.146 363.503 615.88 368.832 613.32 373.57Z" fill="#00BFA6"/>
<path opacity="0.3" d="M551.22 326.23C551.22 332.72 549.67 354.23 540.15 357.34V357.17C540.25 357.05 540.35 356.92 540.44 356.78C544.67 350.78 547.01 325.78 547.01 325.78C548.404 326.008 549.809 326.158 551.22 326.23Z" fill="white"/>
<path opacity="0.3" d="M616.85 357.94C598.93 357.02 601.05 333.58 602.95 322.94L606.02 323.63C600.51 339.23 615.01 355.92 616.85 357.94Z" fill="white"/>
<g opacity="0.1">
<path opacity="0.1" d="M617.04 358.64C617.035 358.589 617.014 358.542 616.979 358.504C616.945 358.466 616.9 358.44 616.85 358.43C612.85 357.43 617.29 358.88 612.85 357.43C612.68 357.37 613.09 356.7 613.09 356.7C613.225 362.077 611.942 367.396 609.37 372.12C602.022 385.656 598.237 400.839 598.37 416.24V418.16V418.4C598.37 418.4 603.76 433.09 598.37 433.09C592.98 433.09 593.47 440.44 586.62 441.91C580.34 443.26 559.69 451.99 550.62 450.06C551.18 450.47 551.75 450.86 552.34 451.21C559.69 455.62 583.69 445.33 590.54 443.86C597.39 442.39 596.91 435.04 602.29 435.04C607.67 435.04 602.29 420.35 602.29 420.35V420.1V418.18C602.157 402.779 605.942 387.596 613.29 374.06C615.873 369.338 617.166 364.02 617.04 358.64V358.64Z" fill="black"/>
<path opacity="0.1" d="M565.32 327.02C565.09 326.86 564.85 326.69 564.63 326.52H564.11C564.51 326.72 564.92 326.87 565.32 327.02Z" fill="black"/>
</g>
<path d="M719.89 572.18L714.02 585.4C712.344 582.644 710.508 579.99 708.52 577.45V577.45C705.669 573.641 702.303 570.246 698.52 567.36C694.426 564.382 690.562 561.099 686.96 557.54C684.2 554.87 681.18 552.22 679.04 551.11C677.797 550.486 676.609 549.757 675.49 548.93C671.59 545.93 663.93 539.78 662.12 535.45C662.12 535.45 646.45 520.76 639.59 517.82L632.75 509.82L624.89 500.65L644.97 480.57L650.88 488.84L659.67 501.14C663.646 506.081 668.195 510.532 673.22 514.4C678.227 518.031 682.85 522.163 687.02 526.73C693.594 533.879 699.362 541.73 704.22 550.14L716.85 567.89L716.94 568.03L718.94 570.82L719.89 572.18Z" fill="#DB8B8B"/>
<path d="M595.49 573.65L587.65 592.26L581.29 585.4L578.67 579.9L576.39 575.11L565.12 568.25L554.12 561.07C552.22 559.832 550.148 558.882 547.97 558.25C538.46 555.47 540.1 550.13 540.1 550.13L540.97 536.27L541.57 526.62L567.57 523.68L566.27 531.03L564.63 540.33C574.43 541.8 580.79 557.96 580.79 557.96C584.66 563.77 588.33 566.18 590.38 567.14C590.914 567.41 591.478 567.614 592.06 567.75L595.49 573.65Z" fill="#DB8B8B"/>
<path opacity="0.1" d="M716.94 568.04L716.71 567.91H716.85L716.94 568.04Z" fill="black"/>
<path opacity="0.1" d="M719.89 572.18L714.02 585.4C712.344 582.644 710.508 579.99 708.52 577.45C709.42 578.31 714.45 582.89 716.06 578.71C716.677 577.005 717.388 575.336 718.19 573.71C718.687 572.844 718.94 571.859 718.92 570.86L719.89 572.18Z" fill="black"/>
<path opacity="0.1" d="M719.41 571.31L717.41 568.52L717.32 568.38L704.69 550.63C699.822 542.225 694.044 534.381 687.46 527.24C683.29 522.672 678.666 518.541 673.66 514.91C668.635 511.042 664.086 506.591 660.11 501.65L651.35 489.4L645.44 481.13L644.58 481.99L649.87 489.4L658.66 501.7C662.642 506.627 667.193 511.065 672.22 514.92C677.226 518.551 681.85 522.682 686.02 527.25C692.592 534.39 698.36 542.23 703.22 550.63L715.87 568.4L715.96 568.54L717.96 571.33L718.96 572.69L713.7 584.53C714.25 585.4 714.56 585.91 714.56 585.91L720.44 572.69L719.41 571.31Z" fill="black"/>
<path opacity="0.1" d="M595.49 573.65L587.65 592.26L581.29 585.4L578.67 579.9L586.19 584.9C593.58 580.28 590.73 568.47 590.39 567.15C590.924 567.419 591.488 567.624 592.07 567.76L595.49 573.65Z" fill="black"/>
<path d="M590.84 567.53C590.84 567.53 594.51 580.53 586.68 585.41L576.39 578.55C576.39 578.55 574.39 583.45 580.8 589.82C583.185 591.957 585.044 594.615 586.234 597.588C587.423 600.561 587.912 603.768 587.66 606.96C587.66 606.96 588.66 618.71 594.52 615.78C594.52 615.78 603.83 613.78 603.34 597.66C603.34 597.66 599.63 584.21 603.95 578.52C604.07 578.367 604.193 578.217 604.32 578.07C609.22 572.68 602.85 564.36 602.85 564.36C602.85 564.36 591.33 559.7 590.84 567.53Z" fill="#535461"/>
<path opacity="0.1" d="M602.35 434.56C596.96 434.56 597.45 441.91 590.6 443.38C583.75 444.85 559.74 455.13 552.4 450.73C545.06 446.33 540.16 437.02 540.16 437.02V436.02C552.4 442.39 567.59 436.02 567.59 436.02C578.41 438.1 597.02 423.91 602.36 419.6V419.85C602.36 419.85 607.73 434.56 602.35 434.56Z" fill="black"/>
<path opacity="0.1" d="M541.61 526.63L567.61 523.69L566.31 531.04C558.26 534.78 546.67 535.93 541.05 536.28L541.61 526.63Z" fill="black"/>
<path opacity="0.1" d="M650.86 488.86C649.63 497.86 639.57 505.59 632.73 509.86L624.87 500.69L644.95 480.61L650.86 488.86Z" fill="black"/>
<path d="M567.57 437C567.57 437 552.39 443.37 540.14 437L537.69 470.31C537.69 470.31 538.18 485 536.22 493.31C534.26 501.62 537.69 535.43 537.69 535.43C537.69 535.43 568.06 534.94 573.93 523.68C573.93 523.68 586.66 498.21 584.22 489.4L610.67 495.28L626.35 512.4C626.35 512.4 653.29 499.67 650.84 483.99L614.59 441.4L603.82 419.4C603.82 419.4 580.31 439.45 567.57 437Z" fill="#00BFA6"/>
<path opacity="0.1" d="M626.35 512.4L610.68 495.26L584.22 489.4C584.28 489.62 584.33 489.85 584.38 490.09C584.461 490.559 584.508 491.034 584.52 491.51C584.93 501.7 573.94 523.69 573.94 523.69C568.06 534.96 537.7 535.44 537.7 535.44C537.7 535.44 534.22 501.66 536.22 493.33C538.22 485 537.69 470.33 537.69 470.33L540.05 438.26L540.14 437.03C543.56 438.752 547.313 439.707 551.14 439.83C556.56 439.986 561.96 439.107 567.05 437.24L567.57 437.03C567.857 437.083 568.15 437.127 568.45 437.16C578.97 438.32 595.84 425.78 601.71 421.11C603.04 420.05 603.81 419.4 603.81 419.4L614.59 441.4L650.83 484.01C650.908 484.5 650.955 484.994 650.97 485.49C651.6 500.49 626.35 512.4 626.35 512.4Z" fill="black"/>
<path opacity="0.3" d="M594.1 320.93C583.19 340.64 567.1 329.73 562.64 326.11L564.14 326.02C568.37 329.33 574.14 329.81 577 329.81C578.004 329.814 579.006 329.887 580 330.03C588.27 331.19 590.79 320.2 590.79 320.2L594.1 320.93Z" fill="white"/>
<path d="M717.22 568.4C718.897 568.306 720.57 568.651 722.073 569.402C723.577 570.152 724.858 571.282 725.79 572.68C725.79 572.68 738.51 583.4 745.36 584.4C745.36 584.4 765.93 593.22 760.05 605.46C754.17 617.7 739.97 606.46 739.97 606.46C739.97 606.46 724.79 592.75 719.89 593.73C719.89 593.73 706.42 585.65 708.89 577.81C708.89 577.81 714.79 583.81 716.57 579.2C717.183 577.495 717.891 575.826 718.69 574.2C719.64 572.32 720.13 569.87 717.22 568.4Z" fill="#535461"/>
<path opacity="0.1" d="M564.35 437.12C559.23 438.61 548.93 440.6 540.15 436.03L539.99 438.22C550.64 442.09 562.42 437.87 564.35 437.12Z" fill="black"/>
<path opacity="0.1" d="M575.48 435.4C572.929 436.226 570.223 436.455 567.57 436.07C567.57 436.07 566.49 436.52 564.69 437.07C567.82 437.6 571.58 436.83 575.48 435.4Z" fill="black"/>
<path opacity="0.1" d="M650.98 485.5C650.51 500.03 626.35 511.45 626.35 511.45L626.01 511.08C632.7 507.41 649.88 496.68 647.9 484.02L611.65 441.4L601.71 421.07C603.04 420.01 603.81 419.36 603.81 419.36L614.59 441.36L650.83 483.97C650.913 484.476 650.964 484.987 650.98 485.5Z" fill="black"/>
<path opacity="0.1" d="M581.29 489.4C583.74 498.22 571 523.68 571 523.68C569.26 527.01 565.39 529.4 560.79 531.11C566.63 529.37 571.84 526.72 573.94 522.7C573.94 522.7 585.24 500.1 584.5 490.11L581.29 489.4Z" fill="black"/>
<path opacity="0.3" d="M572.96 362.31C566.06 362.31 560.47 370.31 560.47 380.19C560.47 390.07 566.06 398.07 572.96 398.07C579.86 398.07 585.45 390.07 585.45 380.19C585.45 370.31 579.86 362.31 572.96 362.31ZM572.96 390.72C568.9 390.72 565.6 386.01 565.6 380.19C565.6 374.37 568.89 369.66 572.96 369.66C577.03 369.66 580.32 374.37 580.32 380.19C580.32 386.01 577.02 390.72 572.96 390.72V390.72Z" fill="white"/>
<path d="M654.82 236.13C654.82 236.71 654.82 237.283 654.82 237.85C654.82 238.16 654.82 238.47 654.75 238.77C654.331 243.907 652.61 248.852 649.75 253.14C649.56 253.43 649.36 253.71 649.16 253.99C646.433 257.814 642.833 260.932 638.659 263.085C634.485 265.238 629.857 266.365 625.16 266.37C624.49 266.37 623.82 266.37 623.16 266.3C622.5 266.23 621.93 266.2 621.32 266.12C617.081 265.545 613.016 264.06 609.405 261.766C605.794 259.472 602.722 256.423 600.4 252.83C600.24 252.6 600.09 252.35 599.95 252.12V252.07C597.017 247.271 595.47 241.754 595.48 236.13C595.478 234.631 595.585 233.134 595.8 231.65L595.96 230.65C596.771 226.075 598.626 221.748 601.38 218.005C604.134 214.263 607.713 211.205 611.84 209.07L612.92 208.54C616.43 206.92 620.225 206.01 624.088 205.86C627.951 205.711 631.805 206.326 635.43 207.67C636.374 208.021 637.298 208.422 638.2 208.87V208.87C644.843 212.179 650.031 217.823 652.77 224.72C652.87 224.95 652.95 225.17 653.03 225.4C654.262 228.841 654.869 232.475 654.82 236.13V236.13Z" fill="#F88787"/>
<path opacity="0.5" d="M652.91 225.4C651.008 225.964 649.034 226.251 647.05 226.25H646.71H645.93C645.45 226.25 644.98 226.19 644.53 226.13C640.641 225.665 636.914 224.295 633.65 222.13V222.13C624.92 213.23 616.37 210.19 611.75 209.13L612.83 208.6C617.37 209.75 624.74 212.6 632.41 219.8C634.388 221.671 636.72 223.126 639.27 224.08C641.022 224.728 642.845 225.168 644.7 225.39C645.1 225.39 645.49 225.47 645.88 225.5H646.67C648.697 225.556 650.721 225.299 652.67 224.74C652.74 224.99 652.83 225.21 652.91 225.4Z" fill="white"/>
<path opacity="0.5" d="M654.77 237.85C654.77 238.16 654.77 238.47 654.7 238.77C652.142 237.134 649.408 235.792 646.55 234.77L645.8 234.5C638.985 232.21 631.945 230.655 624.8 229.86C608 227.72 599.62 229.72 595.63 231.62L595.79 230.62C600.11 228.72 608.62 226.99 624.9 229.06C632.04 229.857 639.078 231.396 645.9 233.65L646.65 233.92C649.491 234.931 652.214 236.249 654.77 237.85V237.85Z" fill="white"/>
<path opacity="0.5" d="M646.65 233.99C646.65 234.26 646.59 234.53 646.56 234.81C646.386 236.177 646.14 237.607 645.82 239.1C645.573 240.227 645.3 241.31 645 242.35C644.92 242.62 644.84 242.89 644.76 243.15C640.96 255.32 633.23 261.49 627.12 264.57C625.823 265.23 624.487 265.811 623.12 266.31L621.28 266.13C623.199 265.533 625.066 264.777 626.86 263.87C632.86 260.87 640.45 254.74 644.15 242.69C644.23 242.45 644.3 242.2 644.37 241.95C644.65 240.983 644.903 239.983 645.13 238.95C645.456 237.45 645.706 235.983 645.88 234.55C645.88 234.28 645.94 234 645.97 233.73C646.225 231.25 646.225 228.75 645.97 226.27C645.97 226.01 645.92 225.75 645.88 225.5C645.27 220.113 642.934 215.069 639.22 211.12C638.007 209.849 636.666 208.707 635.22 207.71C636.164 208.061 637.088 208.461 637.99 208.91V208.91C638.576 209.423 639.156 209.983 639.73 210.59C643.552 214.701 645.941 219.939 646.54 225.52C646.54 225.77 646.6 226.03 646.63 226.28C646.904 228.842 646.91 231.426 646.65 233.99V233.99Z" fill="white"/>
<path opacity="0.5" d="M649.67 253.15C649.48 253.44 649.28 253.72 649.08 254C648.24 250.36 646.894 246.856 645.08 243.59C644.985 243.428 644.867 243.279 644.73 243.15C644.53 242.968 644.304 242.816 644.06 242.7C640.21 240.79 628.71 243.99 620.16 248.61C613.58 252.17 604.97 252.8 600.26 252.84L599.81 252.13V252.08C604.31 252.08 613.15 251.54 619.81 247.94C627.81 243.64 639.71 239.94 644.29 241.94C644.533 242.046 644.764 242.177 644.98 242.33C645.294 242.554 645.56 242.84 645.76 243.17C647.492 246.312 648.807 249.667 649.67 253.15V253.15Z" fill="white"/>
<path opacity="0.1" d="M303.22 744.54H259.22V749.54H303.22V744.54Z" fill="black"/>
<path opacity="0.3" d="M181.88 95.5701L79.2202 199.04V223.54L195.72 91.1001L181.88 95.5701Z" fill="white"/>
<path opacity="0.3" d="M217.31 85.62L79.2202 260.54V286.47L251.76 80.48L217.31 85.62Z" fill="white"/>
</g>
<defs>
<linearGradient id="paint0_linear" x1="281.77" y1="766.42" x2="281.77" y2="356.78" gradientUnits="userSpaceOnUse">
<stop stop-color="#808080" stop-opacity="0.25"/>
<stop offset="0.54" stop-color="#808080" stop-opacity="0.12"/>
<stop offset="1" stop-color="#808080" stop-opacity="0.1"/>
</linearGradient>
<linearGradient id="paint1_linear" x1="39981.2" y1="25543.8" x2="39981.2" y2="24545.8" gradientUnits="userSpaceOnUse">
<stop stop-color="#808080" stop-opacity="0.25"/>
<stop offset="0.54" stop-color="#808080" stop-opacity="0.12"/>
<stop offset="1" stop-color="#808080" stop-opacity="0.1"/>
</linearGradient>
<linearGradient id="paint2_linear" x1="163667" y1="123928" x2="163667" y2="35739.3" gradientUnits="userSpaceOnUse">
<stop stop-color="#808080" stop-opacity="0.25"/>
<stop offset="0.54" stop-color="#808080" stop-opacity="0.12"/>
<stop offset="1" stop-color="#808080" stop-opacity="0.1"/>
</linearGradient>
<linearGradient id="paint3_linear" x1="153333" y1="113506" x2="153333" y2="36109" gradientUnits="userSpaceOnUse">
<stop stop-color="#808080" stop-opacity="0.25"/>
<stop offset="0.54" stop-color="#808080" stop-opacity="0.12"/>
<stop offset="1" stop-color="#808080" stop-opacity="0.1"/>
</linearGradient>
<linearGradient id="paint4_linear" x1="30328.2" y1="30718.6" x2="30328.2" y2="22307.9" gradientUnits="userSpaceOnUse">
<stop stop-color="#808080" stop-opacity="0.25"/>
<stop offset="0.54" stop-color="#808080" stop-opacity="0.12"/>
<stop offset="1" stop-color="#808080" stop-opacity="0.1"/>
</linearGradient>
<linearGradient id="paint5_linear" x1="25225.8" y1="24958.9" x2="25225.8" y2="19161.6" gradientUnits="userSpaceOnUse">
<stop stop-color="#808080" stop-opacity="0.25"/>
<stop offset="0.54" stop-color="#808080" stop-opacity="0.12"/>
<stop offset="1" stop-color="#808080" stop-opacity="0.1"/>
</linearGradient>
<linearGradient id="paint6_linear" x1="64947.1" y1="68471.5" x2="64947.1" y2="51867.9" gradientUnits="userSpaceOnUse">
<stop stop-color="#808080" stop-opacity="0.25"/>
<stop offset="0.54" stop-color="#808080" stop-opacity="0.12"/>
<stop offset="1" stop-color="#808080" stop-opacity="0.1"/>
</linearGradient>
<linearGradient id="paint7_linear" x1="55202.1" y1="64936.1" x2="55202.1" y2="50016.7" gradientUnits="userSpaceOnUse">
<stop stop-color="#808080" stop-opacity="0.25"/>
<stop offset="0.54" stop-color="#808080" stop-opacity="0.12"/>
<stop offset="1" stop-color="#808080" stop-opacity="0.1"/>
</linearGradient>
<linearGradient id="paint8_linear" x1="26869.7" y1="55535.2" x2="26869.7" y2="41696" gradientUnits="userSpaceOnUse">
<stop stop-color="#808080" stop-opacity="0.25"/>
<stop offset="0.54" stop-color="#808080" stop-opacity="0.12"/>
<stop offset="1" stop-color="#808080" stop-opacity="0.1"/>
</linearGradient>
<linearGradient id="paint9_linear" x1="65589.9" y1="12216.5" x2="65589.9" y2="11402.3" gradientUnits="userSpaceOnUse">
<stop stop-color="#808080" stop-opacity="0.25"/>
<stop offset="0.54" stop-color="#808080" stop-opacity="0.12"/>
<stop offset="1" stop-color="#808080" stop-opacity="0.1"/>
</linearGradient>
<linearGradient id="paint10_linear" x1="65589.9" y1="12216.5" x2="65589.9" y2="11402.3" gradientUnits="userSpaceOnUse">
<stop stop-color="#808080" stop-opacity="0.25"/>
<stop offset="0.54" stop-color="#808080" stop-opacity="0.12"/>
<stop offset="1" stop-color="#808080" stop-opacity="0.1"/>
</linearGradient>
<linearGradient id="paint11_linear" x1="65589.9" y1="12126.4" x2="65589.9" y2="11312.2" gradientUnits="userSpaceOnUse">
<stop stop-color="#808080" stop-opacity="0.25"/>
<stop offset="0.54" stop-color="#808080" stop-opacity="0.12"/>
<stop offset="1" stop-color="#808080" stop-opacity="0.1"/>
</linearGradient>
<linearGradient id="paint12_linear" x1="241210" y1="268739" x2="241210" y2="111197" gradientUnits="userSpaceOnUse">
<stop stop-color="#808080" stop-opacity="0.25"/>
<stop offset="0.54" stop-color="#808080" stop-opacity="0.12"/>
<stop offset="1" stop-color="#808080" stop-opacity="0.1"/>
</linearGradient>
<clipPath id="clip0">
<rect width="1006.44" height="786.79" fill="white"/>
</clipPath>
</defs>
</svg>
